<svg width="601" height="719" viewBox="0 0 601 719" fill="none" xmlns="http://www.w3.org/2000/svg">
<path d="M64.5611 479.938C64.5611 517.198 79.2815 563.411 79.2815 563.411L117.859 416.684L64.3918 395.6C64.561 395.6 64.5611 442.679 64.5611 479.938Z" fill="url(#paint0_linear)"/>
<path d="M285 591.654C214.6 547.004 116.333 573.049 76 591.654C83.8571 647.466 74.9912 708 184.429 708C272.429 708 282.381 638.164 285 591.654Z" stroke="url(#paint1_linear)" stroke-width="22"/>
<path d="M564 591.654C493.6 547.004 395.333 573.049 355 591.654C362.857 647.466 353.991 708 463.429 708C551.429 708 561.381 638.164 564 591.654Z" stroke="url(#paint2_linear)" stroke-width="22"/>
<path d="M285 593H317H349" stroke="url(#paint3_linear)" stroke-width="22"/>
<path d="M595 339L499.545 384.16L510.454 390.574L592.519 350.807L595 339Z" fill="white"/>
<path d="M567.135 370.876C562.033 328.435 534.945 295 534.945 295C534.945 295 505.302 235.252 494.445 152C472.302 276.036 561.445 373.811 487.819 179.671C414.194 -14.4698 481.064 175.836 481.064 175.836C481.064 202 518.396 176.391 402.427 145.248C138.8 67.6779 134.91 223.477 319.512 179.671C430.394 153.358 423.864 201.507 281.578 113.475C242.191 89.1062 266.565 28.5403 266.565 28.5403L238.252 67.6779C247.706 37.5109 213.294 0 213.294 0C243.756 41.5535 217.645 55.7497 217.645 55.7497L201.889 31.9415C215.395 72.9035 193.486 78.6706 193.486 78.6706L138.8 28.5403C138.8 28.5403 202.639 100.704 150.419 85.7687C103.75 63.2914 124.908 4.28844 124.908 4.28844C113.954 15.8229 109.452 46.8771 109.452 46.8771C91.5949 11.0908 46.3956 31.9415 46.3956 31.9415C46.3956 31.9415 111.16 17.5287 77.5467 90.8758C45.4338 160.526 77.9395 179.227 82.4413 182.776C43.5757 179.819 31.2708 109.133 31.2708 109.133C4.71018 253.314 40.7246 307.141 40.7246 307.141C2.90943 307.289 16.715 210.873 16.715 210.873C16.715 210.873 -7.74481 246.363 4.25999 315.866C19.5661 385.516 106.301 394.241 110.052 394.241C134.062 393.501 145.767 391.431 145.767 391.431C90.3944 367.771 63.3837 269.284 63.3837 269.284C63.3837 269.284 105.701 350.469 134.812 374.868C163.924 399.268 231.151 400.747 231.151 400.747C212.843 385.664 206.391 343.223 202.039 307.289C197.687 271.355 150.419 205.892 150.419 205.892C150.419 205.892 152.519 206.584 196.937 262.038C241.355 317.492 210.743 387.142 249.458 403.557C288.174 420.858 335.593 405.775 335.593 405.775C382.261 386.403 380.01 344.702 374.308 307.289C369.206 269.136 269.266 189.431 269.266 189.431C269.266 189.431 302.22 218.858 364.945 269.284C423.183 320.739 362.483 401.487 374.308 400.747C386.133 400.008 425.312 371.593 471.98 373.811C430.662 337.684 480.945 205.892 480.945 205.892C442.381 297.318 487.819 365.701 487.819 365.701C487.819 365.701 496.772 388.557 525.419 412.282C554.065 436.006 557.587 561 557.587 561C557.587 561 572.087 480.601 572.087 471.876C572.988 463.003 572.988 413.317 567.135 370.876Z" fill="url(#paint4_linear)"/>
<path d="M296.779 67.1967C347.765 38.1523 436.179 124.452 446.573 157.139L325.364 234.343C392.583 174.376 357.69 53.5612 296.779 67.1967Z" fill="url(#paint5_linear)"/>
<path d="M247.609 40.599C363.657 82.7497 372.367 182.247 362.212 210.873L283.023 140.396C280.376 130.543 304.642 69.7285 247.609 40.599Z" fill="url(#paint6_linear)"/>
<path d="M471.5 140.5C559.032 157.139 575.783 311.836 557.587 365.139L497.338 321.545C445.782 266.885 565.174 268.39 445.782 222.757C472.916 210.321 496.885 217.575 505.478 222.757C519.045 219.146 487.334 147.866 471.5 140.5Z" fill="url(#paint7_linear)"/>
<path d="M430 67.6779C480 89.7029 492.778 174.226 480.945 205.892C452.445 222.392 400.5 126.892 386 117.392C374.4 109.792 390.833 66.559 400.5 45.8923C388 97.3923 428.687 156.442 444 131.417C453.245 116.308 442.167 77.6779 430 67.6779Z" fill="url(#paint8_linear)"/>
<path d="M586.248 338L501.675 396.311L512.319 406.704L584.949 355.185L586.248 338Z" fill="white"/>
<defs>
<linearGradient id="paint0_linear" x1="-0.499997" y1="188" x2="177.5" y2="702.5" gradientUnits="userSpaceOnUse">
<stop stop-color="#2C48AB"/>
<stop offset="1" stop-color="#04091C"/>
</linearGradient>
<linearGradient id="paint1_linear" x1="181" y1="306.5" x2="293.5" y2="753.5" gradientUnits="userSpaceOnUse">
<stop stop-color="#2C48AB"/>
<stop offset="1" stop-color="#0B1D2E"/>
</linearGradient>
<linearGradient id="paint2_linear" x1="452.5" y1="384.5" x2="419.5" y2="747" gradientUnits="userSpaceOnUse">
<stop stop-color="#2C48AB"/>
<stop offset="1" stop-color="#0B1D2E"/>
</linearGradient>
<linearGradient id="paint3_linear" x1="317" y1="435" x2="299.5" y2="685" gradientUnits="userSpaceOnUse">
<stop stop-color="#2C48AB"/>
<stop offset="1" stop-color="#0B1D2E"/>
</linearGradient>
<linearGradient id="paint4_linear" x1="287" y1="-25" x2="287" y2="707.5" gradientUnits="userSpaceOnUse">
<stop stop-color="#2C48AB"/>
<stop offset="1" stop-color="#040B22"/>
</linearGradient>
<linearGradient id="paint5_linear" x1="287" y1="-25" x2="287" y2="707.5" gradientUnits="userSpaceOnUse">
<stop stop-color="#2C48AB"/>
<stop offset="1" stop-color="#040B22"/>
</linearGradient>
<linearGradient id="paint6_linear" x1="287" y1="-25" x2="287" y2="707.5" gradientUnits="userSpaceOnUse">
<stop stop-color="#2C48AB"/>
<stop offset="1" stop-color="#040B22"/>
</linearGradient>
<linearGradient id="paint7_linear" x1="287" y1="-25" x2="287" y2="707.5" gradientUnits="userSpaceOnUse">
<stop stop-color="#2C48AB"/>
<stop offset="1" stop-color="#040B22"/>
</linearGradient>
<linearGradient id="paint8_linear" x1="287" y1="-25" x2="287" y2="707.5" gradientUnits="userSpaceOnUse">
<stop stop-color="#2C48AB"/>
<stop offset="1" stop-color="#040B22"/>
</linearGradient>
</defs>
</svg>
