<svg width="565" height="701" viewBox="0 0 565 701" fill="none" xmlns="http://www.w3.org/2000/svg">
<path d="M50.5611 466.938C50.5611 504.198 65.2815 550.411 65.2815 550.411L103.859 403.684L50.3918 382.6C50.561 382.6 50.5611 429.679 50.5611 466.938Z" fill="#2B2B98"/>
<path d="M545.143 361.757C540.231 320.36 554.309 285.511 554.309 285.511C554.238 285.622 563.5 222 564.918 184.773C507.592 303.246 520.5 149.5 541.5 126C562.5 102.5 478.5 186.5 473.5 163C404.898 -94.4579 492.625 182.613 386.557 141.677C409 153.5 425.366 155.906 359.484 45.7245C330.484 -2.77551 398.607 155.547 270.201 110.685C227.949 95.9232 255.746 27.8386 255.746 27.8386L228.486 66.0139C237.588 36.5887 204.455 0 204.455 0C233.785 40.5318 208.645 54.379 208.645 54.379L193.474 31.1561C206.478 71.111 185.383 76.7364 185.383 76.7364L132.73 27.8386C132.73 27.8386 194.197 98.2283 143.917 83.6599C98.9833 61.7353 119.355 4.183 119.355 4.183C108.808 15.4338 104.474 45.7245 104.474 45.7245C87.2803 10.8181 43.7612 31.1561 43.7612 31.1561C43.7612 31.1561 106.118 17.0978 73.7543 88.6414C42.8352 156.579 74.1325 174.82 78.4669 178.282C41.0461 175.397 29.1986 106.45 29.1986 106.45C3.62538 247.085 38.301 299.589 38.301 299.589C1.89157 299.733 15.1839 205.688 15.1839 205.688C15.1839 205.688 -8.36661 240.306 3.19193 308.099C17.9291 376.037 101.44 384.547 105.052 384.547C128.169 383.826 139.438 381.807 139.438 381.807C86.1244 358.728 60.1177 262.663 60.1177 262.663C60.1177 262.663 100.862 341.852 128.891 365.652C156.92 389.451 221.648 390.894 221.648 390.894C204.022 376.181 197.809 334.784 193.619 299.733C189.429 264.683 115.743 162.993 115.743 162.993C115.743 162.993 145.94 201.505 188.706 255.596C231.473 309.542 201.999 377.624 239.275 393.635C276.551 410.511 322.208 395.798 322.208 395.798C367.141 376.902 364.974 336.226 359.484 299.733C354.571 262.519 258.347 184.773 258.347 184.773C258.347 184.773 295.623 212.756 356.016 261.942C416.41 310.984 351.826 391.615 351.826 391.615C351.826 391.615 408.592 362.457 453.525 364.62C413.742 329.381 468.775 214.313 468.775 214.313C431.645 303.491 468.775 356.709 468.775 356.709C468.775 356.709 477.395 379.004 504.977 402.145C532.559 425.286 537.341 552.877 537.341 552.877C537.341 552.877 549.911 468.784 549.911 460.274C550.778 451.619 550.778 403.154 545.143 361.757Z" fill="#2B2B98"/>
<path d="M266 574.654C197.284 530.004 101.368 556.049 62 574.654C69.6692 630.466 61.0154 691 167.835 691C253.729 691 263.444 621.164 266 574.654Z" stroke="#2B2B98" stroke-width="20"/>
<path d="M539 574.654C470.284 530.004 374.368 556.049 335 574.654C342.669 630.466 334.015 691 440.835 691C526.729 691 536.444 621.164 539 574.654Z" stroke="#2B2B98" stroke-width="20"/>
<path d="M266 576H298H330" stroke="#2B2B98" stroke-width="20"/>
<path d="M548.39 308L460.391 369.099L471.265 379.669L546.854 325.713L548.39 308Z" fill="white"/>
<path d="M291.593 147.663C292.305 145.808 291.545 146.536 278.616 141.017L262.606 135.423C255.707 132.479 243.89 115.972 254.418 89.2642C264.947 62.557 303.231 44.8991 315.966 38.3877C296.064 58.3539 276.085 119.04 296.541 94.04C312.906 74.04 336.564 83.0329 341.466 93.2059C337.086 86.0698 313.184 92.056 291.593 147.663C291.579 147.7 291.565 147.737 291.549 147.776C291.564 147.738 291.579 147.701 291.593 147.663Z" fill="#2B2B98"/>
</svg>
