<svg width="565" height="702" viewBox="0 0 565 702" fill="none" xmlns="http://www.w3.org/2000/svg">
<path d="M50.5611 467.938C50.5611 505.198 65.2815 551.411 65.2815 551.411L103.859 404.684L50.3918 383.6C50.561 383.6 50.5611 430.679 50.5611 467.938Z" fill="url(#paint0_linear)"/>
<path d="M545.143 361.757C540.231 320.36 554.309 285.511 554.309 285.511C554.238 285.622 563.5 222 564.918 184.773C507.592 303.246 520.5 149.5 541.5 126C562.5 102.5 478.5 186.5 473.5 163C386.557 -39 492.625 182.613 386.557 141.677C409 153.5 425.366 155.906 359.484 45.7245C330.484 -2.77551 419.906 151.312 291.5 106.45C249.248 91.6883 255.746 27.8386 255.746 27.8386L228.486 66.0139C237.588 36.5887 204.455 0 204.455 0C233.785 40.5318 208.645 54.379 208.645 54.379L193.474 31.1561C206.478 71.111 185.383 76.7364 185.383 76.7364L132.73 27.8386C132.73 27.8386 194.197 98.2283 143.917 83.6599C98.9833 61.7353 119.355 4.183 119.355 4.183C108.808 15.4338 104.474 45.7245 104.474 45.7245C87.2803 10.8181 43.7612 31.1561 43.7612 31.1561C43.7612 31.1561 106.118 17.0978 73.7543 88.6414C42.8352 156.579 74.1325 174.82 78.4669 178.282C41.0461 175.397 29.1986 106.45 29.1986 106.45C3.62538 247.085 38.301 299.589 38.301 299.589C1.89157 299.733 15.1839 205.688 15.1839 205.688C15.1839 205.688 -8.36661 240.306 3.19193 308.099C17.9291 376.037 101.44 384.547 105.052 384.547C128.169 383.826 139.438 381.807 139.438 381.807C86.1244 358.728 60.1177 262.663 60.1177 262.663C60.1177 262.663 100.862 341.852 128.891 365.652C156.92 389.451 221.648 390.894 221.648 390.894C204.022 376.181 197.809 334.784 193.619 299.733C189.429 264.683 115.743 162.993 115.743 162.993C115.743 162.993 145.94 201.505 188.706 255.596C231.473 309.542 201.999 377.624 239.275 393.635C276.551 410.511 322.208 395.798 322.208 395.798C367.141 376.902 364.974 336.226 359.484 299.733C354.571 262.519 258.347 184.773 258.347 184.773C258.347 184.773 295.623 212.756 356.016 261.942C416.41 310.984 351.826 391.615 351.826 391.615C351.826 391.615 408.592 362.457 453.525 364.62C413.742 329.381 468.775 214.313 468.775 214.313C431.645 303.491 468.775 356.709 468.775 356.709C468.775 356.709 477.395 379.004 504.977 402.145C532.559 425.286 537.341 552.877 537.341 552.877C537.341 552.877 549.911 468.784 549.911 460.274C550.778 451.619 550.778 403.154 545.143 361.757Z" fill="url(#paint1_linear)"/>
<path d="M263 574.654C192.6 530.004 94.3333 556.049 54 574.654C61.8571 630.466 52.9912 691 162.429 691C250.429 691 260.381 621.164 263 574.654Z" stroke="url(#paint2_linear)" stroke-width="22"/>
<path d="M542 574.654C471.6 530.004 373.333 556.049 333 574.654C340.857 630.466 331.991 691 441.429 691C529.429 691 539.381 621.164 542 574.654Z" stroke="url(#paint3_linear)" stroke-width="22"/>
<path d="M263 576H295H327" stroke="url(#paint4_linear)" stroke-width="22"/>
<path d="M548.39 309L460.391 370.099L471.265 380.669L546.854 326.713L548.39 309Z" fill="white"/>
<path d="M348.787 38.0607C235.447 137.12 385.787 150.003 332.287 167.561C305.775 186.721 205.625 194.137 226.4 150.003C246.786 106.695 321.444 53.6919 348.787 38.0607Z" fill="url(#paint5_linear)"/>
<defs>
<linearGradient id="paint0_linear" x1="-14.5" y1="176" x2="77" y2="599" gradientUnits="userSpaceOnUse">
<stop stop-color="#2C48AB"/>
<stop offset="0.957774" stop-color="#04091C"/>
</linearGradient>
<linearGradient id="paint1_linear" x1="282.459" y1="0" x2="282.459" y2="552.877" gradientUnits="userSpaceOnUse">
<stop stop-color="#2C48AB"/>
<stop offset="1" stop-color="#0B1D2E"/>
</linearGradient>
<linearGradient id="paint2_linear" x1="159" y1="289.5" x2="271.5" y2="736.5" gradientUnits="userSpaceOnUse">
<stop stop-color="#2C48AB"/>
<stop offset="1" stop-color="#0B1D2E"/>
</linearGradient>
<linearGradient id="paint3_linear" x1="430.5" y1="367.5" x2="397.5" y2="730" gradientUnits="userSpaceOnUse">
<stop stop-color="#2C48AB"/>
<stop offset="1" stop-color="#0B1D2E"/>
</linearGradient>
<linearGradient id="paint4_linear" x1="295" y1="418" x2="277.5" y2="668" gradientUnits="userSpaceOnUse">
<stop stop-color="#2C48AB"/>
<stop offset="1" stop-color="#0B1D2E"/>
</linearGradient>
<linearGradient id="paint5_linear" x1="206.343" y1="1.97156" x2="287.223" y2="640.515" gradientUnits="userSpaceOnUse">
<stop stop-color="#2C48AB"/>
<stop offset="1" stop-color="#0B1D2E"/>
</linearGradient>
</defs>
</svg>
