<svg width="32" height="38" viewBox="0 0 32 38" fill="none" xmlns="http://www.w3.org/2000/svg">
<path d="M25.0518 24.4123C25.1174 22.6551 24.096 22.5067 22.9577 23.8448V23.8448L20.8917 25.7443C19.3711 26.8023 20.1744 25.7476 19.617 27.6461C18.4894 31.4869 15.1942 32.7355 12.8921 32.8687C10.5901 33.002 6.39255 32.1585 5.42742 28.3365C5.21873 27.2978 4.66342 27.2625 3.8236 27.2794L1.88758 27.3914C0.273848 27.4174 0.258813 28.3422 0.354873 28.7609C0.802267 31.3361 2.38365 33.6355 4.74074 35.1486C7.17519 36.6968 10.1284 37.4537 13.1235 37.2923L13.1588 37.2902C16.1525 37.1051 18.9986 36.0125 21.2256 34.1945C23.3981 32.4272 24.7009 29.9609 24.8484 27.3433C24.8706 27.1297 25.0019 25.7497 25.0518 24.4123Z" fill="#20204B"/>
<path d="M17.2703 0.253206L14.0914 3.08414C13.405 3.69537 13.8374 4.83094 14.7565 4.83094H25.4666C26.0189 4.83094 26.4666 5.27865 26.4666 5.83094V16.7491C26.4666 17.6124 27.4869 18.07 28.1316 17.4959L31.1688 14.7911C31.3819 14.6013 31.5038 14.3296 31.5038 14.0443V1C31.5038 0.447715 31.0561 0 30.5038 0H17.9353C17.6901 0 17.4534 0.0901123 17.2703 0.253206Z" fill="url(#paint0_linear)"/>
<path d="M10.5299 6.87656L7.35101 9.70749C6.66466 10.3187 7.09701 11.4543 8.01607 11.4543H18.7262C19.2785 11.4543 19.7262 11.902 19.7262 12.4543V23.3724C19.7262 24.2357 20.7465 24.6933 21.3912 24.1192L24.4284 21.4144C24.6415 21.2247 24.7634 20.953 24.7634 20.6677V7.62335C24.7634 7.07107 24.3157 6.62335 23.7634 6.62335H11.1949C10.9497 6.62335 10.713 6.71346 10.5299 6.87656Z" fill="#20204B"/>
<path d="M14.2019 24.2794L17.0158 21.5187L9.62073 21.4643L9.66695 13.3191L7.05403 15.8826L7.00669 24.2264L14.2019 24.2794Z" fill="#20204B"/>
<defs>
<linearGradient id="paint0_linear" x1="21.8168" y1="0" x2="21.8168" y2="18.9787" gradientUnits="userSpaceOnUse">
<stop stop-color="#8515DD"/>
<stop offset="1" stop-color="#5417FF"/>
</linearGradient>
</defs>
</svg>
