<svg width="50" height="50" viewBox="0 0 50 50" fill="none" xmlns="http://www.w3.org/2000/svg">
<path d="M39.7431 32.1649C39.8822 29.6828 38.2879 29.3875 36.4923 31.0674L36.4364 31.1197L33.1575 33.5191C30.7442 34.8555 32.019 33.5233 31.1344 35.9214C29.3447 40.773 24.1149 42.3501 20.4613 42.5184C16.8076 42.6867 10.1457 41.6212 8.61392 36.7934C8.28271 35.4814 7.40137 35.4369 6.06848 35.4582L2.99579 35.5997C0.434628 35.6326 0.410765 36.8007 0.563223 37.3295C1.27329 40.5824 3.78312 43.487 7.52409 45.3982C11.3878 47.3539 16.0749 48.31 20.8285 48.1061L20.8845 48.1035C25.6359 47.8696 30.1529 46.4895 33.6874 44.1931C37.1354 41.9607 39.2031 38.8453 39.4372 35.5389C39.4702 35.2866 39.6545 33.7454 39.7431 32.1649Z" fill="url(#paint0_linear)"/>
<path d="M27.6013 1.18414L21.8135 5.28638C21.0182 5.85001 21.417 7.10224 22.3917 7.10224H41.0054C41.5576 7.10224 42.0054 7.54995 42.0054 8.10223V23.0386C42.0054 23.8503 42.9214 24.3238 43.5836 23.8544L49.5782 19.6056C49.8428 19.4181 50 19.114 50 18.7898V2C50 1.44772 49.5523 1 49 1H28.1795C27.9723 1 27.7703 1.06435 27.6013 1.18414Z" fill="url(#paint1_linear)"/>
<path d="M16.9037 9.55048L11.1159 13.6527C10.3206 14.2163 10.7194 15.4686 11.6941 15.4686H30.3078C30.86 15.4686 31.3078 15.9163 31.3078 16.4686V31.4049C31.3078 32.2166 32.2238 32.6901 32.886 32.2208L38.8806 27.972C39.1452 27.7845 39.3024 27.4803 39.3024 27.1561V10.3663C39.3024 9.81405 38.8547 9.36633 38.3024 9.36633H17.4819C17.2747 9.36633 17.0727 9.43068 16.9037 9.55048Z" fill="url(#paint2_linear)"/>
<path d="M22.54 31.6686L27.006 28.1815L15.2692 28.1127L15.3426 17.8241L11.1956 21.0622L11.1205 31.6017L22.54 31.6686Z" fill="url(#paint3_linear)"/>
<defs>
<linearGradient id="paint0_linear" x1="19.8317" y1="29.352" x2="20.6958" y2="48.1122" gradientUnits="userSpaceOnUse">
<stop stop-color="#FF113C"/>
<stop offset="1" stop-color="#FF00C7"/>
</linearGradient>
<linearGradient id="paint1_linear" x1="34.6257" y1="1" x2="34.6257" y2="24.9731" gradientUnits="userSpaceOnUse">
<stop stop-color="#FF113C"/>
<stop offset="1" stop-color="#FF00C7"/>
</linearGradient>
<linearGradient id="paint2_linear" x1="23.9281" y1="9.36633" x2="23.9281" y2="33.3394" gradientUnits="userSpaceOnUse">
<stop stop-color="#FF113C"/>
<stop offset="1" stop-color="#FF00C7"/>
</linearGradient>
<linearGradient id="paint3_linear" x1="19.0507" y1="31.6482" x2="19.1316" y2="17.8463" gradientUnits="userSpaceOnUse">
<stop stop-color="#FF113C"/>
<stop offset="1" stop-color="#FF00C7"/>
</linearGradient>
</defs>
</svg>
