<svg width="50" height="48" viewBox="0 0 50 48" fill="none" xmlns="http://www.w3.org/2000/svg">
<path d="M39.2835 27.456L36.4364 30.1197L33.1575 32.5191C30.7442 33.8555 32.019 32.5233 31.1344 34.9214C29.3447 39.773 24.1149 41.3501 20.4613 41.5184C16.8076 41.6867 10.1457 40.6212 8.61392 35.7934C8.28271 34.4814 7.40137 34.4369 6.06848 34.4582L2.99579 34.5997C0.434628 34.6326 0.410765 35.8007 0.563223 36.3295C1.27329 39.5824 3.78312 42.487 7.52409 44.3982C11.3878 46.3539 16.0749 47.31 20.8285 47.1061L20.8845 47.1035C25.6359 46.8696 30.1529 45.4895 33.6874 43.1931C37.1354 40.9607 39.2031 37.8453 39.4372 34.5389C39.5084 33.9947 40.2835 27.456 39.2835 27.456Z" fill="url(#paint0_linear)"/>
<path d="M27.8611 0L19.2515 6.10224H42.0054V23.9731L50 18.3067V0H27.8611Z" fill="url(#paint1_linear)"/>
<path d="M17.1635 8.36633L8.55389 14.4686H31.3078V32.3394L39.3024 26.673V8.36633H17.1635Z" fill="url(#paint2_linear)"/>
<path d="M22.54 30.6686L27.006 27.1815L15.2692 27.1127L15.3426 16.8241L11.1956 20.0622L11.1205 30.6017L22.54 30.6686Z" fill="url(#paint3_linear)"/>
<defs>
<linearGradient id="paint0_linear" x1="21.2594" y1="47.0845" x2="20.3952" y2="28.3244" gradientUnits="userSpaceOnUse">
<stop stop-color="#EE0979"/>
<stop offset="1" stop-color="#F32655"/>
</linearGradient>
<linearGradient id="paint1_linear" x1="34.632" y1="23.9675" x2="34.632" y2="-0.00556987" gradientUnits="userSpaceOnUse">
<stop stop-color="#F32655"/>
<stop offset="1" stop-color="#FF6A00"/>
</linearGradient>
<linearGradient id="paint2_linear" x1="23.9344" y1="32.3338" x2="23.9344" y2="8.36076" gradientUnits="userSpaceOnUse">
<stop stop-color="#F32655"/>
<stop offset="1" stop-color="#FF6A00"/>
</linearGradient>
<linearGradient id="paint3_linear" x1="19.1459" y1="16.8476" x2="19.065" y2="30.6495" gradientUnits="userSpaceOnUse">
<stop stop-color="#EE0979"/>
<stop offset="1" stop-color="#F32655"/>
</linearGradient>
</defs>
</svg>
