<svg width="50" height="48" viewBox="0 0 50 48" fill="none" xmlns="http://www.w3.org/2000/svg">
<path d="M27.861 0L19.2515 6.10224H42.0053V23.9731L49.9999 18.3067V0H27.861Z" fill="#20204B"/>
<path d="M39.2835 27.456L36.4364 30.1197L33.1575 32.5191C30.7441 33.8555 32.0189 32.5233 31.1343 34.9214C29.3447 39.7729 24.1149 41.3501 20.4613 41.5184C16.8076 41.6867 10.1457 40.6212 8.6139 35.7934C8.2827 34.4814 7.40135 34.4369 6.06846 34.4582L2.99578 34.5997C0.434613 34.6325 0.41075 35.8006 0.563208 36.3295C1.27327 39.5824 3.7831 42.487 7.52407 44.3982C11.3878 46.3539 16.0748 47.31 20.8285 47.106L20.8845 47.1035C25.6359 46.8696 30.1529 45.4895 33.6874 43.1931C37.1354 40.9607 39.2031 37.8453 39.4372 34.5389C39.5083 33.9947 40.2835 27.456 39.2835 27.456Z" fill="url(#paint0_linear)"/>
<path d="M17.1635 8.36633L8.55388 14.4686H31.3077V32.3394L39.3024 26.673V8.36633H17.1635Z" fill="url(#paint1_linear)"/>
<path d="M22.54 30.6686L27.006 27.1815L15.2692 27.1127L15.3426 16.8241L11.1956 20.0622L11.1204 30.6017L22.54 30.6686Z" fill="url(#paint2_linear)"/>
<defs>
<linearGradient id="paint0_linear" x1="19.0507" y1="30.6482" x2="19.1316" y2="16.8463" gradientUnits="userSpaceOnUse">
<stop stop-color="#5729DD"/>
<stop offset="1" stop-color="#3050C0"/>
</linearGradient>
<linearGradient id="paint1_linear" x1="19.0507" y1="30.6482" x2="19.1316" y2="16.8463" gradientUnits="userSpaceOnUse">
<stop stop-color="#5729DD"/>
<stop offset="1" stop-color="#3050C0"/>
</linearGradient>
<linearGradient id="paint2_linear" x1="19.0507" y1="30.6482" x2="19.1316" y2="16.8463" gradientUnits="userSpaceOnUse">
<stop stop-color="#5729DD"/>
<stop offset="1" stop-color="#3050C0"/>
</linearGradient>
</defs>
</svg>
