<svg width="130" height="132" viewBox="0 0 130 132" fill="none" xmlns="http://www.w3.org/2000/svg">
<path fill-rule="evenodd" clip-rule="evenodd" d="M0 68.1306V11.0842C0 5.44541 5.265 0.11377 10.8333 0.11377H23.8333C25.0293 0.11377 26 1.09672 26 2.30786C26 3.519 25.0293 4.50195 23.8333 4.50195H10.8333C7.67433 4.50195 4.33333 7.88524 4.33333 11.0842V68.1306C4.33333 69.3418 3.36267 70.3247 2.16667 70.3247C0.970667 70.3247 0 69.3418 0 68.1306ZM119.167 0.11377H97.5C96.304 0.11377 95.3333 1.09672 95.3333 2.30786C95.3333 3.519 96.304 4.50195 97.5 4.50195H119.167C122.326 4.50195 125.667 7.88524 125.667 11.0842V90.0715C125.667 93.2705 122.326 96.6538 119.167 96.6538H10.8333C7.67433 96.6538 4.33333 93.2705 4.33333 90.0715V79.1011H119.167C120.363 79.1011 121.333 78.1181 121.333 76.907C121.333 75.6958 120.363 74.7129 119.167 74.7129H2.16667C0.970667 74.7129 0 75.6958 0 76.907V90.0715C0 95.7103 5.265 101.042 10.8333 101.042H119.167C124.735 101.042 130 95.7103 130 90.0715V11.0842C130 5.44541 124.735 0.11377 119.167 0.11377ZM60.6667 87.8774C60.6667 90.2975 62.6102 92.2656 65 92.2656C67.3898 92.2656 69.3333 90.2975 69.3333 87.8774C69.3333 85.4574 67.3898 83.4893 65 83.4893C62.6102 83.4893 60.6667 85.4574 60.6667 87.8774ZM88.8333 127.371H86.6667V125.177C86.6667 123.966 85.696 122.983 84.5 122.983C83.304 122.983 82.3333 123.966 82.3333 125.177V127.371H78V125.177C78 123.966 77.0293 122.983 75.8333 122.983C74.6373 122.983 73.6667 123.966 73.6667 125.177V127.371H69.3333V125.177C69.3333 123.966 68.3627 122.983 67.1667 122.983C65.9707 122.983 65 123.966 65 125.177V127.371H60.6667V125.177C60.6667 123.966 59.696 122.983 58.5 122.983C57.304 122.983 56.3333 123.966 56.3333 125.177V127.371H52V125.177C52 123.966 51.0293 122.983 49.8333 122.983C48.6373 122.983 47.6667 123.966 47.6667 125.177V127.371H43.3333V125.177C43.3333 123.966 42.3627 122.983 41.1667 122.983C39.9707 122.983 39 123.966 39 125.177V127.371H34.6667V125.177C34.6667 123.966 33.696 122.983 32.5 122.983C31.304 122.983 30.3333 123.966 30.3333 125.177V127.371H26V125.177C26 123.966 25.0293 122.983 23.8333 122.983C22.6373 122.983 21.6667 123.966 21.6667 125.177V127.371H17.3333V125.177C17.3333 123.966 16.3627 122.983 15.1667 122.983C13.9707 122.983 13 123.966 13 125.177V127.371H10.8333C9.63733 127.371 8.66667 128.354 8.66667 129.565C8.66667 130.776 9.63733 131.759 10.8333 131.759H88.8333C90.0293 131.759 91 130.776 91 129.565C91 128.354 90.0293 127.371 88.8333 127.371ZM56.3333 116.401V107.624C56.3333 106.413 55.3627 105.43 54.1667 105.43C52.9707 105.43 52 106.413 52 107.624V116.401C52 117.612 52.9707 118.595 54.1667 118.595C55.3627 118.595 56.3333 117.612 56.3333 116.401ZM75.8333 118.595C77.0293 118.595 78 117.612 78 116.401V107.624C78 106.413 77.0293 105.43 75.8333 105.43C74.6373 105.43 73.6667 106.413 73.6667 107.624V116.401C73.6667 117.612 74.6373 118.595 75.8333 118.595ZM121.333 127.371V129.565C121.333 130.776 120.363 131.759 119.167 131.759H101.833C100.637 131.759 99.6667 130.776 99.6667 129.565V127.371C99.6667 122.531 103.554 118.595 108.333 118.595H112.667C117.446 118.595 121.333 122.531 121.333 127.371ZM117 127.371C117 124.951 115.056 122.983 112.667 122.983H108.333C105.943 122.983 104 124.951 104 127.371H117ZM75.8333 70.3247C77.0293 70.3247 78 69.3418 78 68.1306V20.4903L86.6667 6.44811L93.5913 17.6665H84.5C83.304 17.6665 82.3333 18.6495 82.3333 19.8606C82.3333 21.0717 83.304 22.0547 84.5 22.0547H97.5C98.2887 22.0547 99.0123 21.6225 99.3958 20.9247C99.7772 20.227 99.7555 19.3735 99.3373 18.6977L88.504 1.14499C87.711 -0.138551 85.6223 -0.138551 84.8293 1.14499L73.996 18.6977C73.7815 19.0466 73.6667 19.4481 73.6667 19.8606V68.1306C73.6667 69.3418 74.6373 70.3247 75.8333 70.3247ZM32.5 70.3247H45.5C46.696 70.3247 47.6667 69.3418 47.6667 68.1306C47.6667 66.9195 46.696 65.9365 45.5 65.9365H34.6667V61.5483H36.8333C38.0293 61.5483 39 60.5654 39 59.3543C39 58.1431 38.0293 57.1602 36.8333 57.1602H34.6667V52.772H36.8333C38.0293 52.772 39 51.789 39 50.5779C39 49.3667 38.0293 48.3838 36.8333 48.3838H34.6667V43.9956H45.5C46.696 43.9956 47.6667 43.0127 47.6667 41.8015C47.6667 40.5904 46.696 39.6074 45.5 39.6074H34.6667V35.2192H36.8333C38.0293 35.2192 39 34.2363 39 33.0251C39 31.814 38.0293 30.8311 36.8333 30.8311H34.6667V26.4429H36.8333C38.0293 26.4429 39 25.4599 39 24.2488C39 23.0376 38.0293 22.0547 36.8333 22.0547H34.6667V17.6665H45.5C46.696 17.6665 47.6667 16.6836 47.6667 15.4724C47.6667 14.2613 46.696 13.2783 45.5 13.2783H34.6667V4.50195H65V68.1306C65 69.3418 65.9707 70.3247 67.1667 70.3247C68.3627 70.3247 69.3333 69.3418 69.3333 68.1306V2.30786C69.3333 1.09672 68.3627 0.11377 67.1667 0.11377H32.5C31.304 0.11377 30.3333 1.09672 30.3333 2.30786V68.1306C30.3333 69.3418 31.304 70.3247 32.5 70.3247ZM97.5 26.4429C96.304 26.4429 95.3333 27.4258 95.3333 28.637V68.1306C95.3333 69.3418 96.304 70.3247 97.5 70.3247C98.696 70.3247 99.6667 69.3418 99.6667 68.1306V28.637C99.6667 27.4258 98.696 26.4429 97.5 26.4429ZM84.5 28.637V68.1306C84.5 69.3418 85.4707 70.3247 86.6667 70.3247C87.8627 70.3247 88.8333 69.3418 88.8333 68.1306V28.637C88.8333 27.4258 87.8627 26.4429 86.6667 26.4429C85.4707 26.4429 84.5 27.4258 84.5 28.637Z" fill="url(#linear-gradient)"/>
<defs>
<linearGradient id="linear-gradient" x1="0" y1="0.11377" x2="131.557" y2="124.032" gradientUnits="userSpaceOnUse">
<stop stop-color="#3D529E"/>
<stop offset="0.52417" stop-color="#8C2B7A"/>
<stop offset="1" stop-color="#FF4D5A"/>
</linearGradient>
</defs>
</svg>
