<svg width="130" height="132" viewBox="0 0 130 132" fill="none" xmlns="http://www.w3.org/2000/svg">
<path fill-rule="evenodd" clip-rule="evenodd" d="M121.333 48.3838V57.1602H127.833C129.032 57.1602 130 58.1431 130 59.3542C130 60.5654 129.032 61.5483 127.833 61.5483H121.333V70.3247H127.833C129.032 70.3247 130 71.3077 130 72.5188C130 73.7299 129.032 74.7129 127.833 74.7129H121.333V83.4893H127.833C129.032 83.4893 130 84.4722 130 85.6833C130 86.8945 129.032 87.8774 127.833 87.8774H121.333V96.6538H127.833C129.032 96.6538 130 97.6368 130 98.8479C130 100.059 129.032 101.042 127.833 101.042H121.333V112.012C121.333 117.651 116.068 122.983 110.5 122.983H99.6667V129.565C99.6667 130.776 98.6982 131.759 97.5 131.759C96.3018 131.759 95.3333 130.776 95.3333 129.565V122.983H86.6667V129.565C86.6667 130.776 85.6982 131.759 84.5 131.759C83.3018 131.759 82.3333 130.776 82.3333 129.565V122.983H73.6667V129.565C73.6667 130.776 72.6982 131.759 71.5 131.759C70.3018 131.759 69.3333 130.776 69.3333 129.565V122.983H60.6667V129.565C60.6667 130.776 59.6982 131.759 58.5 131.759C57.3018 131.759 56.3333 130.776 56.3333 129.565V122.983H47.6667V129.565C47.6667 130.776 46.6982 131.759 45.5 131.759C44.3018 131.759 43.3333 130.776 43.3333 129.565V122.983H34.6667V129.565C34.6667 130.776 33.6982 131.759 32.5 131.759C31.3018 131.759 30.3333 130.776 30.3333 129.565V122.983H19.5C13.9317 122.983 8.66667 117.651 8.66667 112.012C8.66667 110.801 9.63517 109.818 10.8333 109.818C12.0315 109.818 13 110.801 13 112.012C13 115.211 16.341 118.595 19.5 118.595H110.5C113.659 118.595 117 115.211 117 112.012V19.8606C117 16.6616 113.659 13.2783 110.5 13.2783H19.5C16.341 13.2783 13 16.6616 13 19.8606V103.236C13 104.447 12.0315 105.43 10.8333 105.43C9.63517 105.43 8.66667 104.447 8.66667 103.236V101.042H2.16667C0.9685 101.042 0 100.059 0 98.8479C0 97.6368 0.9685 96.6538 2.16667 96.6538H8.66667V87.8774H2.16667C0.9685 87.8774 0 86.8945 0 85.6833C0 84.4722 0.9685 83.4893 2.16667 83.4893H8.66667V74.7129H2.16667C0.9685 74.7129 0 73.7299 0 72.5188C0 71.3077 0.9685 70.3247 2.16667 70.3247H8.66667V61.5483H2.16667C0.9685 61.5483 0 60.5654 0 59.3542C0 58.1431 0.9685 57.1602 2.16667 57.1602H8.66667V48.3838H2.16667C0.9685 48.3838 0 47.4008 0 46.1897C0 44.9786 0.9685 43.9956 2.16667 43.9956H8.66667V35.2192H2.16667C0.9685 35.2192 0 34.2363 0 33.0251C0 31.814 0.9685 30.8311 2.16667 30.8311H8.66667V19.8606C8.66667 14.2218 13.9317 8.89014 19.5 8.89014H30.3333V2.30786C30.3333 1.09672 31.3018 0.11377 32.5 0.11377C33.6982 0.11377 34.6667 1.09672 34.6667 2.30786V8.89014H43.3333V2.30786C43.3333 1.09672 44.3018 0.11377 45.5 0.11377C46.6982 0.11377 47.6667 1.09672 47.6667 2.30786V8.89014H56.3333V2.30786C56.3333 1.09672 57.3018 0.11377 58.5 0.11377C59.6982 0.11377 60.6667 1.09672 60.6667 2.30786V8.89014H69.3333V2.30786C69.3333 1.09672 70.3018 0.11377 71.5 0.11377C72.6982 0.11377 73.6667 1.09672 73.6667 2.30786V8.89014H82.3333V2.30786C82.3333 1.09672 83.3018 0.11377 84.5 0.11377C85.6982 0.11377 86.6667 1.09672 86.6667 2.30786V8.89014H95.3333V2.30786C95.3333 1.09672 96.3018 0.11377 97.5 0.11377C98.6982 0.11377 99.6667 1.09672 99.6667 2.30786V8.89014H110.5C116.068 8.89014 121.333 14.2218 121.333 19.8606V30.8311H127.833C129.032 30.8311 130 31.814 130 33.0251C130 34.2363 129.032 35.2192 127.833 35.2192H121.333V43.9956H127.833C129.032 43.9956 130 44.9786 130 46.1897C130 47.4008 129.032 48.3838 127.833 48.3838H121.333ZM39 63.7424C39 62.7573 37.804 61.5483 36.8333 61.5483C33.4923 61.5483 30.3333 58.3494 30.3333 54.9661V37.4133C30.3333 34.03 33.4923 30.8311 36.8333 30.8311H93.1667C96.5077 30.8311 99.6667 34.03 99.6667 37.4133V72.5188C99.6667 75.9021 96.5077 79.1011 93.1667 79.1011H86.2658C85.3688 81.6506 82.9877 83.4893 80.1667 83.4893C77.3457 83.4893 74.9645 81.6506 74.0675 79.1011H58.5C55.159 79.1011 52 75.9021 52 72.5188V65.5306C49.4845 64.6223 47.6667 62.211 47.6667 59.3542C47.6667 55.7252 50.583 52.772 54.1667 52.772C57.7503 52.772 60.6667 55.7252 60.6667 59.3542C60.6667 62.211 58.8488 64.6223 56.3333 65.5328V72.5188C56.3333 73.504 57.5293 74.7129 58.5 74.7129H74.0675C74.7197 72.8545 76.1627 71.391 78 70.7284V56.7542C75.4845 55.8459 73.6667 53.4346 73.6667 50.5779C73.6667 46.9489 76.583 43.9956 80.1667 43.9956C83.7503 43.9956 86.6667 46.9489 86.6667 50.5779C86.6667 53.4346 84.8488 55.8459 82.3333 56.7564V70.7284C84.1707 71.391 85.6137 72.8545 86.2658 74.7129H93.1667C94.1373 74.7129 95.3333 73.504 95.3333 72.5188V37.4133C95.3333 36.4282 94.1373 35.2192 93.1667 35.2192H36.8333C35.8627 35.2192 34.6667 36.4282 34.6667 37.4133V54.9661C34.6667 55.9512 35.8627 57.1602 36.8333 57.1602C40.1743 57.1602 43.3333 60.3591 43.3333 63.7424C43.3333 67.1257 40.1743 70.3247 36.8333 70.3247C35.8627 70.3247 34.6667 71.5337 34.6667 72.5188V94.4597C34.6667 95.4449 35.8627 96.6538 36.8333 96.6538H41.1667C42.1373 96.6538 43.3333 95.4449 43.3333 94.4597C43.3333 91.0764 46.4902 87.8774 49.8312 87.8774H58.5C61.841 87.8774 65 91.0764 65 94.4597C65 95.4449 66.196 96.6538 67.1667 96.6538H87.0675C87.9645 94.1043 90.3457 92.2656 93.1667 92.2656C96.7503 92.2656 99.6667 95.2189 99.6667 98.8479C99.6667 102.477 96.7503 105.43 93.1667 105.43C90.3457 105.43 87.9645 103.592 87.0675 101.042H67.1667C63.8257 101.042 60.6667 97.843 60.6667 94.4597C60.6667 93.4746 59.4707 92.2656 58.5 92.2656H49.8312C48.8605 92.2656 47.6667 93.4746 47.6667 94.4597C47.6667 97.843 44.5077 101.042 41.1667 101.042H36.8333C33.4923 101.042 30.3333 97.843 30.3333 94.4597V72.5188C30.3333 69.1355 33.4923 65.9365 36.8333 65.9365C37.804 65.9365 39 64.7276 39 63.7424ZM91 98.8479C91 100.057 91.9707 101.042 93.1667 101.042C94.3627 101.042 95.3333 100.057 95.3333 98.8479C95.3333 97.639 94.3627 96.6538 93.1667 96.6538C91.9707 96.6538 91 97.639 91 98.8479ZM52 59.3542C52 60.5632 52.9707 61.5483 54.1667 61.5483C55.3627 61.5483 56.3333 60.5632 56.3333 59.3542C56.3333 58.1453 55.3627 57.1602 54.1667 57.1602C52.9707 57.1602 52 58.1453 52 59.3542ZM78 50.5779C78 51.7868 78.9707 52.772 80.1667 52.772C81.3627 52.772 82.3333 51.7868 82.3333 50.5779C82.3333 49.3689 81.3627 48.3838 80.1667 48.3838C78.9707 48.3838 78 49.3689 78 50.5779ZM82.3333 76.907C82.3333 75.698 81.3627 74.7129 80.1667 74.7129C78.9707 74.7129 78 75.698 78 76.907C78 78.1159 78.9707 79.1011 80.1667 79.1011C81.3627 79.1011 82.3333 78.1159 82.3333 76.907ZM106.232 109.818C107.428 109.818 108.398 108.835 108.398 107.624C108.398 106.413 107.428 105.43 106.232 105.43H106.208C105.014 105.43 104.054 106.413 104.054 107.624C104.054 108.835 105.034 109.818 106.232 109.818ZM23.8983 109.818C25.0943 109.818 26.065 108.835 26.065 107.624C26.065 106.413 25.0943 105.43 23.8983 105.43H23.8745C22.6807 105.43 21.7208 106.413 21.7208 107.624C21.7208 108.835 22.7023 109.818 23.8983 109.818ZM106.232 26.4429C107.428 26.4429 108.398 25.4599 108.398 24.2488C108.398 23.0376 107.428 22.0547 106.232 22.0547H106.208C105.014 22.0547 104.054 23.0376 104.054 24.2488C104.054 25.4599 105.034 26.4429 106.232 26.4429ZM23.8983 26.4429C25.0943 26.4429 26.065 25.4599 26.065 24.2488C26.065 23.0376 25.0943 22.0547 23.8983 22.0547H23.8745C22.6807 22.0547 21.7208 23.0376 21.7208 24.2488C21.7208 25.4599 22.7023 26.4429 23.8983 26.4429Z" fill="url(#linear-gradient1)"/>
<defs>
<linearGradient id="linear-gradient1" x1="0" y1="0.11377" x2="131.557" y2="124.032" gradientUnits="userSpaceOnUse">
<stop stop-color="#3D529E"/>
<stop offset="0.52417" stop-color="#8C2B7A"/>
<stop offset="1" stop-color="#FF4D5A"/>
</linearGradient>
</defs>
</svg>
