<svg width="130" height="131" viewBox="0 0 130 131" fill="none" xmlns="http://www.w3.org/2000/svg">
<path d="M26.2149 98.6911C26.2149 97.6394 25.3622 96.7868 24.3106 96.7868C13.0056 96.7868 3.8086 87.5964 3.8086 76.3002C3.8086 68.2866 8.52695 60.9632 15.8288 57.6429C16.7863 57.2077 17.2095 56.0786 16.7741 55.1211C16.3389 54.1636 15.2095 53.7403 14.2523 54.1758C5.59433 58.1128 0 66.797 0 76.3002C0 89.6965 10.9056 100.595 24.3106 100.595C25.3622 100.595 26.2149 99.7428 26.2149 98.6911Z" fill="url(#paint0_linear)"/>
<path d="M39.8763 58.9103C42.6221 43.5762 55.9491 32.4467 71.5649 32.4467C83.5064 32.4467 94.4081 38.9993 100.015 49.5475C100.509 50.4761 101.662 50.8287 102.591 50.3352C103.519 49.8416 103.872 48.6886 103.378 47.7598C102.312 45.7537 101.074 43.8768 99.6886 42.1434V16.7591L104.296 11.2696C104.919 11.5032 105.593 11.631 106.297 11.631C109.447 11.631 112.009 9.07057 112.009 5.92314C112.009 2.77572 109.447 0.215332 106.297 0.215332C103.147 0.215332 100.584 2.77572 100.584 5.92314C100.584 6.98092 100.873 7.97242 101.377 8.8225L96.3256 14.8416C96.038 15.1846 95.88 15.618 95.88 16.0657V38.0697C92.5366 35.0086 88.6465 32.61 84.4159 30.9977V17.7062C86.6325 16.9208 88.2245 14.8048 88.2245 12.3244C88.2245 9.17695 85.6618 6.61656 82.5116 6.61656C79.3614 6.61656 76.7987 9.17695 76.7987 12.3244C76.7987 14.8048 78.3907 16.9208 80.6073 17.7062V29.7845C77.6952 29.0322 74.6613 28.6381 71.5649 28.6381C69.9884 28.6381 68.4324 28.7397 66.9044 28.937V11.3049C69.121 10.5196 70.713 8.40355 70.713 5.92314C70.713 2.77572 68.1504 0.215332 65.0001 0.215332C61.8499 0.215332 59.2872 2.77572 59.2872 5.92314C59.2872 8.40355 60.8792 10.5196 63.0958 11.3049V29.6382C58.0459 30.8522 53.3872 33.1305 49.393 36.2446V17.7062C51.6096 16.9208 53.2016 14.8048 53.2016 12.3244C53.2016 9.17695 50.6389 6.61656 47.4887 6.61656C44.3385 6.61656 41.7758 9.17695 41.7758 12.3244C41.7758 14.8048 43.3678 16.9208 45.5844 17.7062V39.6767C41.434 43.9905 38.3389 49.3632 36.7487 55.4189C35.8593 54.8867 34.9414 54.4149 33.9994 54.0046V16.0659C33.9994 15.618 33.8415 15.1846 33.5538 14.8419L28.5026 8.82275C29.0066 7.97242 29.296 6.98092 29.296 5.92314C29.296 2.77572 26.7333 0.215332 23.5831 0.215332C20.4329 0.215332 17.8702 2.77572 17.8702 5.92314C17.8702 9.07057 20.4329 11.631 23.5831 11.631C24.2867 11.631 24.9611 11.5032 25.5839 11.2696L30.1908 16.7591V52.7148C28.2895 52.2448 26.32 52.0051 24.3103 52.0051C23.2586 52.0051 22.406 52.8577 22.406 53.9094C22.406 54.9611 23.2586 55.8137 24.3103 55.8137C28.891 55.8137 33.2227 57.2896 36.8373 60.0819C37.1758 60.3434 37.5866 60.4792 38.0017 60.4792C38.2325 60.4792 38.4646 60.4373 38.6865 60.3518C39.3078 60.1121 39.7588 59.5657 39.8763 58.9103ZM106.297 4.02393C107.347 4.02393 108.201 4.87578 108.201 5.92314C108.201 6.97051 107.347 7.82236 106.297 7.82236C105.246 7.82236 104.392 6.97051 104.392 5.92314C104.392 4.87578 105.246 4.02393 106.297 4.02393ZM82.5116 10.4249C83.5617 10.4249 84.4159 11.277 84.4159 12.3241C84.4159 13.3712 83.5617 14.2233 82.5116 14.2233C81.4614 14.2233 80.6073 13.3715 80.6073 12.3241C80.6073 11.2768 81.4614 10.4249 82.5116 10.4249ZM65.0001 4.02393C66.0503 4.02393 66.9044 4.87578 66.9044 5.92314C66.9044 6.97051 66.0503 7.82236 65.0001 7.82236C63.95 7.82236 63.0958 6.97051 63.0958 5.92314C63.0958 4.87578 63.95 4.02393 65.0001 4.02393ZM47.4887 10.4249C48.5389 10.4249 49.393 11.277 49.393 12.3241C49.393 13.3712 48.5389 14.2233 47.4887 14.2233C46.4385 14.2233 45.5844 13.3715 45.5844 12.3241C45.5844 11.2768 46.4385 10.4249 47.4887 10.4249ZM21.6788 5.92314C21.6788 4.87578 22.533 4.02393 23.5831 4.02393C24.6333 4.02393 25.4874 4.87578 25.4874 5.92314C25.4874 6.97051 24.6333 7.82236 23.5831 7.82236C22.533 7.82236 21.6788 6.97025 21.6788 5.92314Z" fill="url(#paint1_linear)"/>
<path d="M111.66 63.9374C110.27 63.9374 108.901 64.0911 107.566 64.3957C107.55 61.7439 107.244 59.102 106.656 56.5396C106.42 55.5144 105.398 54.8743 104.373 55.1096C103.348 55.345 102.708 56.3667 102.943 57.3917C103.484 59.7462 103.758 62.1774 103.758 64.6169C103.758 65.3611 103.732 66.1198 103.68 66.8716C103.634 67.5246 103.928 68.1553 104.457 68.5413C104.986 68.9275 105.676 69.0143 106.284 68.7723C107.993 68.0916 109.802 67.7463 111.66 67.7463C119.673 67.7463 126.191 74.26 126.191 82.2667C126.191 90.2734 119.673 96.7871 111.66 96.7871H105.415C104.363 96.7871 103.511 97.6397 103.511 98.6914C103.511 99.743 104.363 100.596 105.415 100.596H111.66C121.773 100.596 130 92.3734 130 82.2667C130 72.1599 121.773 63.9374 111.66 63.9374Z" fill="url(#paint2_linear)"/>
<path d="M90.2694 96.7868H72.6211C71.5695 96.7868 70.7169 97.6394 70.7169 98.6911C70.7169 99.7427 71.5695 100.595 72.6211 100.595H80.6073V119.126C78.3907 119.911 76.7987 122.027 76.7987 124.507C76.7987 127.655 79.3614 130.215 82.5116 130.215C85.6618 130.215 88.2245 127.655 88.2245 124.507C88.2245 122.027 86.6325 119.911 84.4159 119.126V100.595H90.2694C91.3211 100.595 92.1737 99.7427 92.1737 98.6911C92.1737 97.6394 91.3211 96.7868 90.2694 96.7868ZM82.5116 126.407C81.4614 126.407 80.6073 125.555 80.6073 124.507C80.6073 123.46 81.4614 122.608 82.5116 122.608C83.5617 122.608 84.4159 123.46 84.4159 124.507C84.4159 125.555 83.5617 126.407 82.5116 126.407Z" fill="url(#paint3_linear)"/>
<path d="M57.3733 96.7868H40.033C38.9813 96.7868 38.1287 97.6394 38.1287 98.6911C38.1287 99.7427 38.9813 100.595 40.033 100.595H45.5844V119.126C43.3678 119.911 41.7758 122.027 41.7758 124.507C41.7758 127.655 44.3385 130.215 47.4887 130.215C50.6389 130.215 53.2016 127.655 53.2016 124.507C53.2016 122.027 51.6096 119.911 49.393 119.126V100.595H57.3733C58.425 100.595 59.2776 99.7427 59.2776 98.6911C59.2776 97.6394 58.425 96.7868 57.3733 96.7868ZM47.4887 126.407C46.4386 126.407 45.5844 125.555 45.5844 124.507C45.5844 123.46 46.4386 122.608 47.4887 122.608C48.5389 122.608 49.393 123.46 49.393 124.507C49.393 125.555 48.5389 126.407 47.4887 126.407Z" fill="url(#paint4_linear)"/>
<path d="M32.2159 80.3576C29.0657 80.3576 26.503 82.9179 26.503 86.0654C26.503 88.5458 28.095 90.6618 30.3116 91.4472V117.475L22.245 127.087C21.5689 127.892 21.674 129.093 22.4796 129.769C22.8364 130.069 23.2708 130.215 23.7027 130.215C24.246 130.215 24.7858 129.984 25.1624 129.535L33.6746 119.392C33.9623 119.049 34.1202 118.616 34.1202 118.168V91.4469C36.3368 90.6616 37.9288 88.5455 37.9288 86.0651C37.9288 82.9179 35.3661 80.3576 32.2159 80.3576ZM32.2159 87.9646C31.1658 87.9646 30.3116 87.1127 30.3116 86.0654C30.3116 85.018 31.1658 84.1661 32.2159 84.1661C33.2661 84.1661 34.1202 85.0183 34.1202 86.0654C34.1202 87.1125 33.2661 87.9646 32.2159 87.9646Z" fill="url(#paint5_linear)"/>
<path d="M65.0001 80.3576C61.8499 80.3576 59.2872 82.9179 59.2872 86.0654C59.2872 88.5458 60.8792 90.6618 63.0958 91.4472V128.311C63.0958 129.363 63.9484 130.215 65.0001 130.215C66.0518 130.215 66.9044 129.363 66.9044 128.311V91.4472C69.121 90.6618 70.713 88.5458 70.713 86.0654C70.713 82.9179 68.1504 80.3576 65.0001 80.3576ZM65.0001 87.9646C63.95 87.9646 63.0958 87.1127 63.0958 86.0654C63.0958 85.018 63.95 84.1661 65.0001 84.1661C66.0503 84.1661 66.9044 85.0183 66.9044 86.0654C66.9044 87.1125 66.0503 87.9646 65.0001 87.9646Z" fill="url(#paint6_linear)"/>
<path d="M99.6886 117.475V91.4472C101.905 90.6618 103.497 88.5458 103.497 86.0654C103.497 82.9179 100.935 80.3576 97.7843 80.3576C94.6341 80.3576 92.0714 82.9179 92.0714 86.0654C92.0714 88.5458 93.6634 90.6618 95.88 91.4472V118.168C95.88 118.616 96.0379 119.05 96.3256 119.392L104.838 129.535C105.215 129.984 105.754 130.215 106.298 130.215C106.729 130.215 107.164 130.069 107.521 129.77C108.326 129.094 108.431 127.892 107.755 127.087L99.6886 117.475ZM97.7843 84.1661C98.8344 84.1661 99.6886 85.0183 99.6886 86.0654C99.6886 87.1125 98.8344 87.9646 97.7843 87.9646C96.7341 87.9646 95.88 87.1127 95.88 86.0654C95.88 85.018 96.7341 84.1661 97.7843 84.1661Z" fill="url(#paint7_linear)"/>
<defs>
<linearGradient id="paint0_linear" x1="0" y1="0.215332" x2="130" y2="124.217" gradientUnits="userSpaceOnUse">
<stop stop-color="#3D529E"/>
<stop offset="0.52417" stop-color="#8C2B7A"/>
<stop offset="1" stop-color="#FF4D5A"/>
</linearGradient>
<linearGradient id="paint1_linear" x1="0" y1="0.215332" x2="130" y2="124.217" gradientUnits="userSpaceOnUse">
<stop stop-color="#3D529E"/>
<stop offset="0.52417" stop-color="#8C2B7A"/>
<stop offset="1" stop-color="#FF4D5A"/>
</linearGradient>
<linearGradient id="paint2_linear" x1="0" y1="0.215332" x2="130" y2="124.217" gradientUnits="userSpaceOnUse">
<stop stop-color="#3D529E"/>
<stop offset="0.52417" stop-color="#8C2B7A"/>
<stop offset="1" stop-color="#FF4D5A"/>
</linearGradient>
<linearGradient id="paint3_linear" x1="0" y1="0.215332" x2="130" y2="124.217" gradientUnits="userSpaceOnUse">
<stop stop-color="#3D529E"/>
<stop offset="0.52417" stop-color="#8C2B7A"/>
<stop offset="1" stop-color="#FF4D5A"/>
</linearGradient>
<linearGradient id="paint4_linear" x1="0" y1="0.215332" x2="130" y2="124.217" gradientUnits="userSpaceOnUse">
<stop stop-color="#3D529E"/>
<stop offset="0.52417" stop-color="#8C2B7A"/>
<stop offset="1" stop-color="#FF4D5A"/>
</linearGradient>
<linearGradient id="paint5_linear" x1="0" y1="0.215332" x2="130" y2="124.217" gradientUnits="userSpaceOnUse">
<stop stop-color="#3D529E"/>
<stop offset="0.52417" stop-color="#8C2B7A"/>
<stop offset="1" stop-color="#FF4D5A"/>
</linearGradient>
<linearGradient id="paint6_linear" x1="0" y1="0.215332" x2="130" y2="124.217" gradientUnits="userSpaceOnUse">
<stop stop-color="#3D529E"/>
<stop offset="0.52417" stop-color="#8C2B7A"/>
<stop offset="1" stop-color="#FF4D5A"/>
</linearGradient>
<linearGradient id="paint7_linear" x1="0" y1="0.215332" x2="130" y2="124.217" gradientUnits="userSpaceOnUse">
<stop stop-color="#3D529E"/>
<stop offset="0.52417" stop-color="#8C2B7A"/>
<stop offset="1" stop-color="#FF4D5A"/>
</linearGradient>
</defs>
</svg>
