<svg width="130" height="130" viewBox="0 0 130 130" fill="none" xmlns="http://www.w3.org/2000/svg">
<path d="M26.2149 98.4758C26.2149 97.4241 25.3622 96.5715 24.3106 96.5715C13.0056 96.5715 3.8086 87.3811 3.8086 76.0848C3.8086 68.0713 8.52695 60.7479 15.8288 57.4275C16.7863 56.9923 17.2095 55.8632 16.7741 54.9057C16.3389 53.9483 15.2095 53.525 14.2523 53.9604C5.59433 57.8975 0 66.5816 0 76.0848C0 89.4812 10.9056 100.38 24.3106 100.38C25.3622 100.38 26.2149 99.5275 26.2149 98.4758Z" fill="url(#linear-gradient)"/>
<path d="M39.8763 58.695C42.6221 43.3608 55.9491 32.2314 71.5649 32.2314C83.5064 32.2314 94.4081 38.7839 100.015 49.3322C100.509 50.2607 101.662 50.6134 102.591 50.1198C103.519 49.6262 103.872 48.4732 103.378 47.5444C102.312 45.5383 101.074 43.6615 99.6886 41.928V16.5438L104.296 11.0543C104.919 11.2879 105.593 11.4156 106.297 11.4156C109.447 11.4156 112.009 8.85523 112.009 5.70781C112.009 2.56039 109.447 0 106.297 0C103.147 0 100.584 2.56039 100.584 5.70781C100.584 6.76559 100.873 7.75709 101.377 8.60717L96.3256 14.6263C96.038 14.9693 95.88 15.4027 95.88 15.8503V37.8544C92.5366 34.7933 88.6465 32.3946 84.4159 30.7823V17.4908C86.6325 16.7055 88.2245 14.5895 88.2245 12.109C88.2245 8.96162 85.6618 6.40123 82.5116 6.40123C79.3614 6.40123 76.7987 8.96162 76.7987 12.109C76.7987 14.5895 78.3907 16.7055 80.6073 17.4908V29.5692C77.6952 28.8168 74.6613 28.4228 71.5649 28.4228C69.9884 28.4228 68.4325 28.5243 66.9044 28.7216V11.0896C69.121 10.3043 70.713 8.18822 70.713 5.70781C70.713 2.56039 68.1504 0 65.0001 0C61.8499 0 59.2872 2.56039 59.2872 5.70781C59.2872 8.18822 60.8792 10.3043 63.0958 11.0896V29.4229C58.0459 30.6368 53.3872 32.9151 49.393 36.0293V17.4908C51.6096 16.7055 53.2016 14.5895 53.2016 12.109C53.2016 8.96162 50.6389 6.40123 47.4887 6.40123C44.3385 6.40123 41.7758 8.96162 41.7758 12.109C41.7758 14.5895 43.3678 16.7055 45.5844 17.4908V39.4613C41.434 43.7752 38.3389 49.1479 36.7487 55.2035C35.8593 54.6713 34.9414 54.1996 33.9994 53.7893V15.8506C33.9994 15.4027 33.8415 14.9693 33.5538 14.6265L28.5026 8.60742C29.0066 7.75709 29.296 6.76559 29.296 5.70781C29.296 2.56039 26.7333 0 23.5831 0C20.4329 0 17.8702 2.56039 17.8702 5.70781C17.8702 8.85523 20.4329 11.4156 23.5831 11.4156C24.2867 11.4156 24.9611 11.2879 25.5839 11.0543L30.1908 16.5438V52.4994C28.2895 52.0294 26.32 51.7898 24.3103 51.7898C23.2586 51.7898 22.406 52.6424 22.406 53.6941C22.406 54.7457 23.2586 55.5984 24.3103 55.5984C28.891 55.5984 33.2227 57.0743 36.8373 59.8665C37.1758 60.128 37.5866 60.2639 38.0017 60.2639C38.2325 60.2639 38.4646 60.222 38.6865 60.1364C39.3078 59.8967 39.7588 59.3503 39.8763 58.695ZM106.297 3.80859C107.347 3.80859 108.201 4.66045 108.201 5.70781C108.201 6.75517 107.347 7.60703 106.297 7.60703C105.246 7.60703 104.392 6.75517 104.392 5.70781C104.392 4.66045 105.246 3.80859 106.297 3.80859ZM82.5116 10.2096C83.5617 10.2096 84.4159 11.0617 84.4159 12.1088C84.4159 13.1559 83.5617 14.008 82.5116 14.008C81.4614 14.008 80.6073 13.1562 80.6073 12.1088C80.6073 11.0614 81.4614 10.2096 82.5116 10.2096ZM65.0001 3.80859C66.0503 3.80859 66.9044 4.66045 66.9044 5.70781C66.9044 6.75517 66.0503 7.60703 65.0001 7.60703C63.95 7.60703 63.0958 6.75517 63.0958 5.70781C63.0958 4.66045 63.95 3.80859 65.0001 3.80859ZM47.4887 10.2096C48.5389 10.2096 49.393 11.0617 49.393 12.1088C49.393 13.1559 48.5389 14.008 47.4887 14.008C46.4385 14.008 45.5844 13.1562 45.5844 12.1088C45.5844 11.0614 46.4385 10.2096 47.4887 10.2096ZM21.6788 5.70781C21.6788 4.66045 22.533 3.80859 23.5831 3.80859C24.6333 3.80859 25.4874 4.66045 25.4874 5.70781C25.4874 6.75517 24.6333 7.60703 23.5831 7.60703C22.533 7.60703 21.6788 6.75492 21.6788 5.70781Z" fill="url(#linear-gradient)"/>
<path d="M111.66 63.7221C110.27 63.7221 108.901 63.8757 107.566 64.1804C107.55 61.5286 107.244 58.8867 106.656 56.3243C106.42 55.299 105.398 54.6589 104.373 54.8943C103.348 55.1297 102.708 56.1514 102.943 57.1764C103.484 59.5309 103.758 61.962 103.758 64.4016C103.758 65.1458 103.732 65.9044 103.68 66.6562C103.634 67.3093 103.928 67.94 104.457 68.3259C104.986 68.7121 105.676 68.799 106.284 68.557C107.993 67.8763 109.802 67.531 111.66 67.531C119.673 67.531 126.191 74.0447 126.191 82.0513C126.191 90.058 119.673 96.5717 111.66 96.5717H105.415C104.363 96.5717 103.511 97.4243 103.511 98.476C103.511 99.5277 104.363 100.38 105.415 100.38H111.66C121.773 100.38 130 92.1581 130 82.0513C130 71.9446 121.773 63.7221 111.66 63.7221Z" fill="url(#linear-gradient)"/>
<path d="M90.2694 96.5714H72.6211C71.5695 96.5714 70.7169 97.4241 70.7169 98.4757C70.7169 99.5274 71.5695 100.38 72.6211 100.38H80.6073V118.91C78.3907 119.696 76.7987 121.812 76.7987 124.292C76.7987 127.44 79.3614 130 82.5116 130C85.6618 130 88.2245 127.44 88.2245 124.292C88.2245 121.812 86.6325 119.695 84.4159 118.91V100.38H90.2694C91.3211 100.38 92.1737 99.5274 92.1737 98.4757C92.1737 97.4241 91.3211 96.5714 90.2694 96.5714ZM82.5116 126.191C81.4614 126.191 80.6073 125.34 80.6073 124.292C80.6073 123.245 81.4614 122.393 82.5116 122.393C83.5617 122.393 84.4159 123.245 84.4159 124.292C84.4159 125.339 83.5617 126.191 82.5116 126.191Z" fill="url(#linear-gradient)"/>
<path d="M57.3733 96.5714H40.033C38.9813 96.5714 38.1287 97.4241 38.1287 98.4757C38.1287 99.5274 38.9813 100.38 40.033 100.38H45.5844V118.91C43.3678 119.696 41.7758 121.812 41.7758 124.292C41.7758 127.44 44.3385 130 47.4887 130C50.6389 130 53.2016 127.44 53.2016 124.292C53.2016 121.812 51.6096 119.695 49.393 118.91V100.38H57.3733C58.425 100.38 59.2776 99.5274 59.2776 98.4757C59.2776 97.4241 58.425 96.5714 57.3733 96.5714ZM47.4887 126.191C46.4386 126.191 45.5844 125.34 45.5844 124.292C45.5844 123.245 46.4386 122.393 47.4887 122.393C48.5389 122.393 49.393 123.245 49.393 124.292C49.393 125.339 48.5389 126.191 47.4887 126.191Z" fill="url(#linear-gradient)"/>
<path d="M32.2159 80.1422C29.0657 80.1422 26.503 82.7026 26.503 85.85C26.503 88.3304 28.095 90.4465 30.3116 91.2318V117.26L22.245 126.871C21.5689 127.677 21.674 128.878 22.4796 129.554C22.8364 129.854 23.2708 130 23.7027 130C24.246 130 24.7858 129.768 25.1624 129.32L33.6746 119.177C33.9623 118.834 34.1202 118.4 34.1202 117.953V91.2316C36.3368 90.4463 37.9288 88.3302 37.9288 85.8498C37.9288 82.7026 35.3661 80.1422 32.2159 80.1422ZM32.2159 87.7492C31.1658 87.7492 30.3116 86.8974 30.3116 85.85C30.3116 84.8027 31.1658 83.9508 32.2159 83.9508C33.2661 83.9508 34.1202 84.8029 34.1202 85.85C34.1202 86.8971 33.2661 87.7492 32.2159 87.7492Z" fill="url(#linear-gradient)"/>
<path d="M65.0001 80.1422C61.8499 80.1422 59.2872 82.7026 59.2872 85.85C59.2872 88.3304 60.8792 90.4465 63.0958 91.2318V128.096C63.0958 129.147 63.9484 130 65.0001 130C66.0518 130 66.9044 129.147 66.9044 128.096V91.2318C69.121 90.4465 70.713 88.3304 70.713 85.85C70.713 82.7026 68.1504 80.1422 65.0001 80.1422ZM65.0001 87.7492C63.95 87.7492 63.0958 86.8974 63.0958 85.85C63.0958 84.8027 63.95 83.9508 65.0001 83.9508C66.0503 83.9508 66.9044 84.8029 66.9044 85.85C66.9044 86.8971 66.0503 87.7492 65.0001 87.7492Z" fill="url(#linear-gradient)"/>
<path d="M99.6886 117.26V91.2318C101.905 90.4465 103.497 88.3304 103.497 85.85C103.497 82.7026 100.935 80.1422 97.7843 80.1422C94.6341 80.1422 92.0714 82.7026 92.0714 85.85C92.0714 88.3304 93.6634 90.4465 95.88 91.2318V117.953C95.88 118.401 96.0379 118.834 96.3256 119.177L104.838 129.32C105.215 129.769 105.754 130 106.298 130C106.729 130 107.164 129.854 107.521 129.554C108.326 128.878 108.431 127.677 107.755 126.872L99.6886 117.26ZM97.7843 83.9508C98.8345 83.9508 99.6886 84.8029 99.6886 85.85C99.6886 86.8971 98.8345 87.7492 97.7843 87.7492C96.7341 87.7492 95.88 86.8974 95.88 85.85C95.88 84.8027 96.7341 83.9508 97.7843 83.9508Z" fill="url(#linear-gradient)"/>
<defs>
<linearGradient id="linear-gradient" x1="0" y1="0.11377" x2="131.557" y2="124.032" gradientUnits="userSpaceOnUse">
<stop stop-color="#3D529E"/>
<stop offset="0.52417" stop-color="#8C2B7A"/>
<stop offset="1" stop-color="#FF4D5A"/>
</linearGradient>
</defs>
</svg>
